PathFileType	4	(X/Y/Z)	Kaydara	
DataRate	CameraRate	NumFrames	NumMarkers	Units	OrigDataRate	OrigDataStartFrame	OrigNumFrames	
120.00	120.00	4	72	mm	120.00	34	268	
Frame#	Time	Hips			RightUpLeg			RightLeg			RightFoot			RightFoot_End			LeftUpLeg			LeftLeg			LeftFoot			LeftFoot_End			Spine			Spine1			Spine2			Spine3			Neck			Head			Head_End			RightShoulder			RightArm			RightForeArm			RightHand			RightHandThumb1			RightHandThumb2			RightHandThumb3			RightHandThumb3_End			RightInHandIndex			RightHandIndex1			RightHandIndex2			RightHandIndex3			RightHandIndex3_End			RightInHandMiddle			RightHandMiddle1			RightHandMiddle2			RightHandMiddle3			RightHandMiddle3_End			RightInHandRing			RightHandRing1			RightHandRing2			RightHandRing3			RightHandRing3_End			RightInHandPinky			RightHandPinky1			RightHandPinky2			RightHandPinky3			RightHandPinky3_End			LeftShoulder			LeftArm			LeftForeArm			LeftHand			LeftHandThumb1			LeftHandThumb2			LeftHandThumb3			LeftHandThumb3_End			LeftInHandIndex			LeftHandIndex1			LeftHandIndex2			LeftHandIndex3			LeftHandIndex3_End			LeftInHandMiddle			LeftHandMiddle1			LeftHandMiddle2			LeftHandMiddle3			LeftHandMiddle3_End			LeftInHandRing			LeftHandRing1			LeftHandRing2			LeftHandRing3			LeftHandRing3_End			LeftInHandPinky			LeftHandPinky1			LeftHandPinky2			LeftHandPinky3			LeftHandPinky3_End			
		X1	Y1	Z1	X2	Y2	Z2	X3	Y3	Z3	X4	Y4	Z4	X5	Y5	Z5	X6	Y6	Z6	X7	Y7	Z7	X8	Y8	Z8	X9	Y9	Z9	X10	Y10	Z10	X11	Y11	Z11	X12	Y12	Z12	X13	Y13	Z13	X14	Y14	Z14	X15	Y15	Z15	X16	Y16	Z16	X17	Y17	Z17	X18	Y18	Z18	X19	Y19	Z19	X20	Y20	Z20	X21	Y21	Z21	X22	Y22	Z22	X23	Y23	Z23	X24	Y24	Z24	X25	Y25	Z25	X26	Y26	Z26	X27	Y27	Z27	X28	Y28	Z28	X29	Y29	Z29	X30	Y30	Z30	X31	Y31	Z31	X32	Y32	Z32	X33	Y33	Z33	X34	Y34	Z34	X35	Y35	Z35	X36	Y36	Z36	X37	Y37	Z37	X38	Y38	Z38	X39	Y39	Z39	X40	Y40	Z40	X41	Y41	Z41	X42	Y42	Z42	X43	Y43	Z43	X44	Y44	Z44	X45	Y45	Z45	X46	Y46	Z46	X47	Y47	Z47	X48	Y48	Z48	X49	Y49	Z49	X50	Y50	Z50	X51	Y51	Z51	X52	Y52	Z52	X53	Y53	Z53	X54	Y54	Z54	X55	Y55	Z55	X56	Y56	Z56	X57	Y57	Z57	X58	Y58	Z58	X59	Y59	Z59	X60	Y60	Z60	X61	Y61	Z61	X62	Y62	Z62	X63	Y63	Z63	X64	Y64	Z64	X65	Y65	Z65	X66	Y66	Z66	X67	Y67	Z67	X68	Y68	Z68	X69	Y69	Z69	X70	Y70	Z70	X71	Y71	Z71	X72	Y72	Z72	

34	0.275	7446.805	859.65103	-201.189	7520.344588919409	846.2584228156082	-244.80397701575257	7389.5625866881355	457.249323966144	-318.97862649691496	7419.505843751017	47.33565532628556	-410.1826063863376	7347.149286986179	-36.01936710108069	-258.0881253854363	7383.158181023983	845.9364648294825	-142.67564240254723	7263.8685149777375	448.20352328920745	-89.49718679554371	7207.434043173454	56.02464653969207	43.547992122641794	7233.761736082908	-3.1503460190137496	222.29236790488727	7399.040028361178	978.8499015906251	-263.7005996288016	7343.017962438496	1040.8072092676293	-312.4667158148772	7277.284509482997	1097.6759862712813	-362.864685953787	7205.593741173365	1141.6698292671763	-409.8503334168852	7128.206017054766	1189.080175053686	-456.2010759578961	7079.709159949901	1259.9709898776605	-416.56116637301903	7062.139572643201	1350.4809830468569	-287.03716435074466	7167.321982981774	1172.33902385011	-463.81889983289375	7218.3260050949875	1136.616621158933	-547.9525878271689	7215.182021381512	909.9351017378948	-519.5897186752802	7225.766643932716	720.1692963615187	-527.642738543691	7222.159361214228	705.9498178825104	-548.5027779626358	7204.083180964923	690.4870384316309	-556.4983957780612	7192.124486422482	678.332467204691	-558.855588503093	7182.693611451755	667.0137912865612	-558.0737878169595	7225.728676543921	699.0454283795175	-539.4528028607883	7220.887274062698	664.3499081592909	-543.2250085070175	7208.739418135199	643.5720078712541	-542.9305906986438	7196.231286423219	636.3239220139797	-543.4679323212449	7182.535462954767	634.1489597154628	-544.3986096950166	7227.19222104484	696.642575741067	-530.4494550352204	7223.264197802284	661.5009454026749	-529.2596679788917	7210.2063209329535	638.6278151828969	-527.7345453016003	7195.2106522898375	629.7871654636868	-527.8051390728282	7180.271083877713	627.3606462603772	-528.542629917684	7228.442051559242	695.780183455534	-524.0017343479294	7226.276722678428	663.3909131986184	-517.3658741306654	7215.102820771526	643.3058130860449	-514.8078817049549	7200.748433319161	634.699298194975	-514.2234703600644	7186.753656976259	632.3803281003624	-514.6076919659436	7229.295775555372	696.1864757572873	-516.3870118727316	7228.144184139574	666.550218499993	-505.6389680294249	7219.528853434456	650.3762923179406	-501.7025960291595	7209.21945675129	644.0548789576565	-500.36302009720583	7196.914873540079	641.9754487014659	-500.17776430005233	7140.5191661079225	1177.7754740658763	-416.88891783061126	7111.492523986554	1141.6594607651489	-320.55707737771405	7177.826231803346	950.9681848931062	-430.00934579723105	7296.402922086298	789.6276850652594	-431.2550283935775	7272.4227337308475	783.1976309528945	-436.6539407899941	7264.741056082326	773.8010094151064	-461.3939233108496	7262.302597137196	765.2730972186417	-479.7327503761296	7262.760094907543	756.4663945573518	-495.9705252748982	7279.594623832709	774.9691488245145	-439.64257072238524	7269.309572723502	747.485709071617	-463.0118241246722	7267.832034815729	731.1698493838783	-487.208887910672	7268.45789710614	726.3174986422997	-503.88989813533533	7270.017698974383	725.8702983868468	-518.8014483562827	7288.140191000456	770.6628443902862	-442.2250652377467	7282.729140716212	741.5262382676981	-466.4133419526677	7282.284879586278	723.2468394360112	-493.0920135642566	7283.600463724219	717.1644710008866	-513.3489398848089	7285.579653436885	716.564227776195	-529.7289979865928	7294.399402349747	768.2748022128159	-443.38459122849633	7294.864420406275	739.952169451098	-465.8677864464055	7295.680018609707	723.5801529369749	-489.36459355919044	7297.587773736814	717.4797736734596	-509.03336447668516	7299.751410539131	716.8047715985779	-524.4960481418335	7302.231994038316	766.6886974871401	-444.5848511093406	7307.347413434783	739.5670342692144	-465.72341981286627	7309.875318002468	725.8949269888818	-484.8212601940842	7312.173747692267	721.1734262266123	-499.3043822963698	7314.612311883931	720.4190273596641	-513.080443819581
35	0.283	7446.805	859.65103	-201.189	7520.916110083301	846.6293081636959	-244.3971851191227	7389.796437558311	457.5615028958793	-318.0283841377904	7419.58655760561	47.210955306660665	-408.1318297846823	7346.873853289846	-35.95146312684289	-255.79692848094442	7382.573233991626	845.542089863025	-143.116842561358	7263.294236791552	447.8009434585912	-89.91108793838005	7207.053650063957	56.058242071775425	44.32531592560747	7233.521935364848	-2.5719111097364085	223.22177246901714	7399.064472204554	978.9298745779762	-263.5759038146354	7343.1138191558275	1040.9724453770882	-312.3344288106544	7277.494060281056	1097.9801839082786	-362.75630036072533	7205.909507085494	1142.093205717556	-409.8350205286172	7128.638266225858	1189.6352804480905	-456.30073521815524	7080.350891472568	1260.5872557915698	-416.5146269751033	7062.649104802223	1350.9026598798464	-286.8517589043679	7167.940475742785	1173.1312808594862	-463.80189056832137	7219.979825810936	1138.6983917135954	-547.9390379237503	7218.941579510764	911.8782260116711	-521.5410773931326	7231.922167501273	724.0603736987357	-532.2651769140764	7228.70850061531	710.31652600536	-553.0701867523887	7210.947568122775	695.1789050087282	-561.50444545867	7199.200769884686	683.2239862018472	-564.2218828112002	7189.940005990884	672.0488354149837	-563.7872611311816	7232.299014946898	703.3742410033228	-544.1795782525849	7228.009171222855	669.1855755597658	-548.4527459454513	7216.178480064045	648.6829771061695	-548.6775493938418	7203.794362777435	641.5460417760157	-549.5478418430608	7190.151832806255	639.422603824936	-550.7609497504152	7233.719407636742	700.8772080217693	-535.315882340274	7230.306036427986	666.1790285305942	-534.6902077230595	7217.586683256369	643.5921396844469	-533.748673602136	7202.737002508617	634.8787901797976	-534.2291251983096	7187.853981605718	632.5053427271548	-535.279615543007	7234.925413222206	699.9360550820417	-528.9527674415817	7233.1854275362675	667.8779180550431	-522.8921796036138	7222.298031592554	648.027119466868	-520.8593611836393	7208.079918976353	639.5353301523791	-520.6790612192344	7194.136159040759	637.2624386816328	-521.3617375699858	7235.706843775794	700.2312795736773	-521.4310846003832	7234.903456110584	670.8328151493313	-511.2639208256475	7226.502345465282	654.8213653869815	-507.7713563049291	7216.284993856237	648.5714705477224	-506.7377962479595	7204.021370365059	646.525858632987	-506.8234003525212	7140.668098723949	1177.9972638532456	-416.9892754259297	7110.69444866663	1140.7976648678668	-321.22780450417764	7178.242199499295	951.7993356298103	-432.90046749072883	7299.28003535717	792.8302021058867	-433.98342919222625	7275.64822152421	786.8738723896465	-439.6214034592473	7268.334764670774	777.7521892598752	-464.54591565730095	7266.093255451107	769.401444264837	-483.0192364708669	7266.664058722158	760.7302050511207	-499.3742549010432	7282.621823568128	778.6614898877056	-442.66553846219807	7272.419314086984	751.7701016631315	-466.4547391187865	7271.090203534368	735.7386025948722	-490.879364984232	7271.900331953961	730.9586794353355	-507.62888402303554	7273.674700193449	730.5010338613713	-522.5479208320243	7291.007068520536	774.2896178604019	-445.2466264290446	7285.589782539109	745.6950518805606	-469.8437646846251	7285.28617687961	727.715215726201	-496.76912327818576	7286.813846391407	721.715078534835	-517.1079212318089	7289.0228399380385	721.1009025044123	-533.4957909131315	7297.149609584313	771.8414644330655	-446.39522174745645	7297.503968425073	743.9562903755987	-469.23763043449935	7298.420407457608	727.8335364120007	-492.9471333103147	7300.521182773632	721.8061891459749	-512.6936450627536	7302.895418486204	721.1151075322709	-528.1630901483068	7304.855552673406	770.1585236885026	-447.5645768193265	7309.787074713151	743.3830179033163	-469.0163123848606	7312.362280707256	729.8901257386638	-488.27928380722017	7314.785320160483	725.212033807449	-502.8166008310627	7317.401128922949	724.4377160129526	-516.5972076242299
36	0.292	7446.805	859.65103	-201.189	7521.485933898002	847.0021048215915	-243.9861121459228	7390.032981489341	457.8742609356524	-317.06797465007617	7419.672913356376	47.089547867340414	-406.06988672773986	7346.608325793536	-35.88136812396418	-253.49627580632807	7381.989763617892	845.1455802043771	-143.5626533054532	7262.720946429358	447.39684103016447	-90.32737089740922	7206.671753738689	56.09573945321031	45.11129943129188	7233.283564285183	-1.986219027801713	224.15974267156687	7399.0899893727	979.0107110987019	-263.4500289704678	7343.211995229341	1041.1401588360752	-312.1998778383798	7277.707430792113	1098.2888341438938	-362.6446378205875	7206.230991630712	1142.5236926227592	-409.81578150545704	7129.078303622667	1190.2003177263846	-456.3957704788499	7081.003252277214	1261.214623302131	-416.4629038771735	7063.168397299054	1351.3355768736608	-286.6617330718592	7168.566214680659	1173.9345457625684	-463.77793350140365	7221.643026794053	1140.8023366675511	-547.9089249688967	7222.737291718185	913.8581205528251	-523.4817135479842	7238.134880917295	728.0279110942995	-536.8890378073838	7235.316422720211	714.7676034708176	-557.6349581576047	7217.87491669988	699.9614254944806	-566.5082659774262	7206.343154373045	688.2102260221368	-569.5869722540169	7197.255315283206	677.1817258728747	-569.5010165512874	7238.928951537512	707.7872384344804	-548.9057300896351	7235.195863654813	674.1152193841032	-553.6806315250236	7223.686774007666	653.8936693028056	-554.4266163340569	7211.4292893509355	646.8703636387197	-555.6311966518035	7197.842125450302	644.799764428519	-557.1279216575931	7240.306674843367	705.1947913470096	-540.1837395795828	7237.413285459357	670.9489461117134	-540.1240404185778	7225.037345176276	648.6543733696067	-539.7685039449169	7210.336834038478	640.0712210653119	-540.6605561321787	7195.512639571023	637.7522378483558	-542.0254073336363	7241.469057920666	704.1737669955	-533.9066521085724	7240.159350754852	672.4537917792052	-528.4242126963652	7229.562762755016	652.8423751379817	-526.9189414239623	7215.484015522013	644.4679919462158	-527.144579051258	7201.593424960905	642.242434444958	-528.127058960441	7242.178323398038	704.3562750073963	-526.4796995744717	7241.727727513606	675.2010728668265	-516.8970645647066	7233.544323567619	659.3558026216812	-513.8506218612806	7223.421291497041	653.1792048851248	-513.1246099980865	7211.200546534336	651.1684216975721	-513.4823840931367	7140.823755712235	1178.2257768210293	-417.0876769059149	7109.9009309967005	1139.9375682685272	-321.909832365513	7178.674094268372	952.6567516901046	-435.8048235420882	7302.178415424168	796.0963337233939	-436.71509978835985	7278.901143129862	790.6199802907162	-442.59095759934104	7271.960034785488	781.7765550470085	-467.69792704365256	7269.917661055915	773.6052456781601	-486.30460062124797	7270.603002775656	765.071323991386	-502.7761699680853	7285.674628188728	782.4245152426677	-445.6917517714925	7275.558413546149	756.134093234255	-469.9012097618947	7274.379945163957	740.39102563726	-494.55265897544405	7275.375768553136	735.6842336491529	-511.3694333472243	7277.365920817241	735.2154925744085	-526.2943835167159	7293.897528061934	777.9865462991614	-448.2721991191448	7288.476573097321	749.9424298777445	-473.27891592152287	7288.315760128931	732.2664970869087	-500.4502542592783	7290.057104695383	726.3493913180158	-520.8694590067743	7292.497169187107	725.7205474003558	-537.2634419340455	7299.921874186933	775.4777033152557	-449.4104087114624	7300.166551397874	748.0370901914756	-472.61318081948036	7301.185404259372	732.1672649628815	-496.53486281737867	7303.480579231525	726.2136592995986	-516.3577554431871	7306.066532326329	725.5057774933501	-531.8323901986952	7307.4993005222705	773.6968193983735	-450.54938566877826	7312.24667226926	747.2733831661961	-472.3157069898259	7314.869982888454	733.9624279138144	-491.74354632859206	7317.418417517561	729.3281589089629	-506.3341391540358	7320.212334575321	728.5332242427568	-520.1179408227762
37	0.3	7446.805	859.65103	-201.189	7522.053976358326	847.3766756204029	-243.57090930676264	7390.271981101906	458.18751860150974	-316.09764093913935	7419.7649755366665	46.971342737861036	-403.99697953788905	7346.352713898773	-35.809131808765514	-251.18630718211534	7381.407869879548	844.7470903600828	-144.0129021824625	7262.1486629059345	446.991385847094	-90.74591077981572	7206.288229902686	56.13723280298153	45.90569003215967	7233.046441216037	-1.393394553344125	225.10596278880172	7399.1165149818235	979.0923436529636	-263.3230584827229	7343.312363474475	1041.3102076811124	-312.06317226673485	7277.924390104277	1098.6016625693603	-362.5298214026747	7206.557886419586	1142.9609205117472	-409.79271892610876	7129.525731757712	1190.7748092516895	-456.4862576454922	7081.6657696381435	1261.8525530679485	-416.4060719733627	7063.696909369561	1351.779224431755	-286.4671853016252	7169.198779540548	1174.7482845632599	-463.74713834321074	7223.314884768084	1142.927472146762	-547.8623044461916	7226.567887898283	915.8739642559905	-525.4108854734988	7244.403041355274	732.0713352765986	-541.5127819879416	7241.980997920623	719.3024298762268	-562.1954224132992	7224.862901076881	704.8340539692001	-571.5078947556342	7213.549221930186	693.2907083131026	-574.9486901370096	7204.637082174288	682.4120540643432	-575.2127170487839	7245.616468776611	712.2838445268299	-553.6295900922003	7242.445124389732	679.1383506235236	-558.9067375884217	7231.261984731423	659.2036971671396	-560.175607620753	7219.133707858833	652.2965665422887	-561.7156322600479	7205.603954945277	650.2801773107824	-563.4969970992092	7246.952135266001	709.5947911842995	-545.0513633562327	7244.583923602884	675.8102711017888	-545.5592523422006	7232.556207006501	653.8142054446885	-545.7918443875634	7218.008003855329	645.3642297595297	-547.0970227257071	7203.244888669194	643.1011666883064	-548.7774172056725	7248.071195207833	708.4928115426899	-538.861735736751	7247.196665067445	677.1181455126782	-533.9601079116014	7236.895137198552	657.7512977749918	-532.9845162401289	7222.9588139354355	649.4970835318682	-533.6177091178623	7209.123525858075	647.3201762922606	-534.9011736099469	7248.708544436602	708.5609852012776	-531.5312184858534	7248.615367659	679.6546417699502	-522.5365768174545	7240.653146256682	663.9793470597755	-519.9383812789175	7230.626698942785	657.8778887048697	-519.521299620472	7218.450741821207	655.9030007380132	-520.1524062033409	7140.985826199539	1178.4606661095863	-417.1841937213638	7109.11188151274	1139.0792229463877	-322.6030372439453	7179.121470983255	953.5400724890085	-438.72167316204747	7305.096907665959	799.4254088371134	-439.4491542281291	7282.180370677161	794.4350921423987	-445.5614108729486	7275.615618294248	785.8731287519657	-470.8486404730554	7273.774487731504	777.8834653289449	-489.5874670619674	7274.575540593351	769.4886859170994	-506.174869709395	7288.751950169323	786.257421625013	-448.72007658091326	7278.72583091806	760.5767754626779	-473.34988811409954	7277.700158491487	745.1261544796728	-498.2273487147457	7278.883007878808	740.4931621264539	-515.1101146610517	7281.090040478282	740.0126459632586	-530.0394202339065	7296.81049138534	781.7528916778169	-451.3007365526143	7291.388485377345	754.2675670412126	-476.71758751165123	7291.372536679104	736.8998264806229	-504.1341307567078	7293.329028432396	731.0665142392916	-524.6322709665558	7296.001298432012	730.4222372707042	-541.0306883863849	7302.715124271385	779.1828295489588	-452.4291718831124	7302.851151789593	752.1938615133708	-475.9933686290224	7303.973935150007	736.5805953131819	-500.12666703080356	7306.464776329657	730.7014090583272	-520.0245811261109	7309.263440872111	729.9759804550764	-535.5028554434386	7310.1621637665385	777.3029549067662	-453.53838522052	7314.725184317123	751.2375203061764	-475.6206817593058	7317.397358787272	738.1112095715088	-495.21310941994585	7320.071892192023	733.5211614315356	-509.85606921517444	7323.04467138132	732.7048930116786	-523.6417402234259
